HIERARCHY
ROOT root
{
	OFFSET	0	13.1	24.9
	CHANNELS 6  Xposition Yposition Zposition Xrotation Yrotation Zrotation
	JOINT spine_1
	{
		OFFSET	0	9.99999	0
		CHANNELS 3  Xrotation Yrotation Zrotation
		JOINT spine_2
		{
			OFFSET	0	112	-10
			CHANNELS 3  Xrotation Yrotation Zrotation
			JOINT spine_3
			{
				OFFSET	0	206.5	19.3
				CHANNELS 3  Xrotation Yrotation Zrotation
				JOINT spine_4
				{
					OFFSET	0	110.4	14.6
					CHANNELS 3  Xrotation Yrotation Zrotation
					JOINT neck_1
					{
						OFFSET	0	71.8	-50.3
						CHANNELS 3  Xrotation Yrotation Zrotation
						JOINT neck_2
						{
							OFFSET	0	86.2	-25.8
							CHANNELS 3  Xrotation Yrotation Zrotation
							JOINT head_ee
							{
								OFFSET	0	179.8	-8.7
								CHANNELS 3  Xrotation Yrotation Zrotation
								End Site
								{
									OFFSET	1	0	0
								}
							}
						}
					}
					JOINT left_clavicle
					{
						OFFSET	-43.2	22.4	-70.8
						CHANNELS 3  Xrotation Yrotation Zrotation
						JOINT left_shoulder
						{
							OFFSET	-93.9	-5.79999	48.7
							CHANNELS 3  Xrotation Yrotation Zrotation
							JOINT left_elbow
							{
								OFFSET	-291.4	-30.8	15.2
								CHANNELS 3  Xrotation Yrotation Zrotation
								JOINT left_lowarm_twist
								{
									OFFSET	-110.7	-3.89999	13.6
									CHANNELS 3  Xrotation Yrotation Zrotation
									JOINT left_hand
									{
										OFFSET	-110.7	-3.89999	13.6
										CHANNELS 3  Xrotation Yrotation Zrotation
										JOINT left_ee
										{
											OFFSET	-80.8	-5.10001	12.1
											CHANNELS 3  Xrotation Yrotation Zrotation
											End Site
											{
												OFFSET	1	0	0
											}
										}
									}
								}
							}
						}
					}
					JOINT right_clavicle
					{
						OFFSET	43.2	22.4	-70.8
						CHANNELS 3  Xrotation Yrotation Zrotation
						JOINT right_shoulder
						{
							OFFSET	93.9	-5.79999	48.7
							CHANNELS 3  Xrotation Yrotation Zrotation
							JOINT right_elbow
							{
								OFFSET	291.4	-30.8	15.2
								CHANNELS 3  Xrotation Yrotation Zrotation
								JOINT right_lowarm_twist
								{
									OFFSET	110.7	-3.89999	13.6
									CHANNELS 3  Xrotation Yrotation Zrotation
									JOINT right_hand
									{
										OFFSET	110.7	-3.89999	13.6
										CHANNELS 3  Xrotation Yrotation Zrotation
										JOINT right_ee
										{
											OFFSET	80.8	-5.10001	12.1
											CHANNELS 3  Xrotation Yrotation Zrotation
											End Site
											{
												OFFSET	1	0	0
											}
										}
									}
								}
							}
						}
					}
				}
			}
		}
	}
	JOINT left_hip
	{
		OFFSET	-82.8	-127.5	0.300001
		CHANNELS 3  Xrotation Yrotation Zrotation
		JOINT left_knee
		{
			OFFSET	-28.2	-396.7	2.2
			CHANNELS 3  Xrotation Yrotation Zrotation
			JOINT left_ankle
			{
				OFFSET	-11.7	-411.3	35.4
				CHANNELS 3  Xrotation Yrotation Zrotation
				JOINT left_toes
				{
					OFFSET	0	-60	-88.6
					CHANNELS 3  Xrotation Yrotation Zrotation
					JOINT left_foot_ee
					{
						OFFSET	-22.5	-16.5	-42.2
						CHANNELS 3  Xrotation Yrotation Zrotation
						End Site
						{
							OFFSET	1	0	0
						}
					}
				}
			}
		}
	}
	JOINT right_hip
	{
		OFFSET	82.8	-127.5	0.300001
		CHANNELS 3  Xrotation Yrotation Zrotation
		JOINT right_knee
		{
			OFFSET	28.2	-396.7	2.2
			CHANNELS 3  Xrotation Yrotation Zrotation
			JOINT right_ankle
			{
				OFFSET	11.7	-411.3	35.4
				CHANNELS 3  Xrotation Yrotation Zrotation
				JOINT right_toes
				{
					OFFSET	0	-60	-88.6
					CHANNELS 3  Xrotation Yrotation Zrotation
					JOINT right_foot_ee
					{
						OFFSET	22.5	-16.5	-42.2
						CHANNELS 3  Xrotation Yrotation Zrotation
						End Site
						{
							OFFSET	1	0	0
						}
					}
				}
			}
		}
	}
}
MOTION
Frames: 9
Frame Time: 0.02
520.419805775 699.75 -1222.5256992 -160.782700012 -45.7518917328 -175.91878243 6.05554 0.549615 3.85989 6.06378 0.303076 3.88698 6.0748 -0.108755 3.89725 6.05396 0.507639 3.86562 2.05921 8.61127 -0.877168 2.30758 15.8639 -0.295831 -0.0 0.0 -0.0 -3.01833 12.3587 -3.59202 -15.261 -48.0331 69.4579 0.639699 -17.5829 0.0989338 -30.2202 -1.97611 3.27356 1.89072 -6.77852 9.93373 -0.0 0.0 -0.0 12.776 23.7792 -25.401 -20.9842 -11.2699 -71.1353 0.877157 23.4856 -0.182337 -50.7278 4.15731 -4.72042 4.64874 27.8569 -18.1251 0.0 0.0 0.0 19.7428 0.242184 17.359 -17.4478 0.317289 2.64839 33.5772 24.2085 -4.48782 13.6117 -0.0 -0.0 -0.0 0.0 -0.0 38.6029 9.06621 15.7227 -35.0598 0.182748 -5.29445 19.4458 -24.1196 2.78221 3.42546 -0.0 -0.0 0.0 0.0 0.0 
522.192799275 698.733 -1216.81146838 -161.506147908 -45.2060589418 -176.226554087 5.84123 0.606819 3.79162 5.84915 0.364499 3.82249 5.86473 -0.0548209 3.83941 5.84458 0.551786 3.80001 0.61067 9.87362 -0.129016 0.859964 17.6412 0.800198 -0.0 0.0 -0.0 -2.90576 13.623 -3.16377 -13.903 -47.3134 68.3699 0.659315 -18.0874 0.104942 -30.6504 -2.01607 3.31158 1.49889 -6.22172 7.49524 -0.0 0.0 -0.0 13.2333 25.2078 -26.3087 -21.6878 -12.789 -72.0049 0.771291 20.9106 -0.14233 -50.7565 4.1607 -4.72188 4.86291 28.1379 -19.3717 0.0 0.0 0.0 18.243 1.47373 17.5692 -16.6716 0.320417 2.52934 35.7638 23.7094 -4.70639 13.4717 -0.0 -0.0 -0.0 0.0 -0.0 39.669 9.57793 14.3391 -35.2211 0.191053 -5.31779 17.3107 -22.5514 2.4784 3.02664 -0.0 -0.0 0.0 0.0 0.0 
525.157946352 701.121 -1213.95185325 -161.007233177 -44.8160797797 -175.547923948 5.56669 0.465205 3.843 5.57488 0.219909 3.86478 5.58139 -0.22264 3.86462 5.56076 0.390035 3.85135 3.15657 9.10819 -0.513637 3.44094 16.3051 0.0189491 -0.0 0.0 -0.0 -2.70318 14.6708 -2.63607 -12.5579 -49.1407 66.2571 0.686214 -18.7745 0.113447 -31.6158 -2.10678 3.39583 1.51735 -5.33051 7.99641 -0.0 0.0 -0.0 13.4478 24.7882 -26.8546 -21.849 -12.0171 -71.7074 0.688761 18.8393 -0.114267 -51.8349 4.28831 -4.77541 4.92254 27.897 -19.9203 0.0 0.0 0.0 18.1358 3.30303 17.1108 -17.3237 0.317897 2.62937 35.3413 22.925 -4.64215 13.0791 -0.0 -0.0 -0.0 0.0 -0.0 42.8254 7.15048 13.5012 -31.4686 0.0149827 -4.76908 17.758 -18.3602 2.49511 2.8771 -0.0 -0.0 0.0 0.0 0.0 
531.162424097 699.743 -1208.47906851 -160.708470455 -45.212774997 -174.800312139 5.36806 0.49704 3.90489 5.3765 0.247751 3.92856 5.38535 -0.215679 3.93045 5.36403 0.407282 3.91526 2.31965 8.83972 0.315219 2.53686 15.2334 1.01637 -0.0 0.0 -0.0 -2.04895 11.4782 -2.10976 -11.0101 -49.481 64.0974 0.729982 -19.8806 0.127933 -30.8618 -2.03581 3.33016 1.53618 -7.15738 7.35211 -0.0 0.0 -0.0 13.5433 24.6115 -27.0967 -23.294 -12.6561 -72.2133 0.671228 18.3924 -0.108671 -51.6368 4.26479 -4.76576 4.881 26.7677 -20.3483 0.0 0.0 0.0 19.9393 -2.51674 17.951 -18.5932 0.309727 2.82397 36.4298 24.411 -4.79462 14.4377 -0.0 -0.0 -0.0 0.0 -0.0 43.2691 9.62155 10.6031 -27.8565 -0.120179 -4.23131 19.832 -15.9747 2.74231 3.10753 -0.0 -0.0 0.0 0.0 0.0 
533.391874709 703.151 -1211.32214914 -159.578762319 -44.2027619832 -173.818246295 5.26008 0.54034 3.71491 5.26771 0.303025 3.74171 5.28036 -0.145556 3.75113 5.261 0.448271 3.72712 5.81595 8.86275 -0.403362 6.12923 15.46 -0.136017 -0.0 0.0 -0.0 -0.0731197 11.0535 1.18341 -12.9057 -48.4217 58.7536 0.831771 -22.3932 0.164647 -31.931 -2.13672 3.42301 0.611224 -3.98422 2.42829 -0.0 0.0 -0.0 13.104 25.4214 -25.9847 -22.7014 -12.2793 -72.8505 0.645927 17.7434 -0.100824 -52.3415 4.34859 -4.79972 5.08499 25.6609 -22.4289 0.0 0.0 0.0 19.2842 -3.00818 18.21 -14.5259 0.320672 2.20015 38.9043 26.0925 -5.09719 12.2054 -0.0 -0.0 -0.0 0.0 -0.0 44.8726 9.8447 10.2554 -25.515 -0.189563 -3.87867 10.9204 -7.96084 1.54723 1.46145 -0.0 -0.0 0.0 0.0 0.0 
535.051620683 705.235 -1212.10236654 -157.850308147 -44.7316550904 -172.826720641 5.13125 0.466121 3.86066 5.13951 0.219701 3.88245 5.14699 -0.254339 3.88034 5.12617 0.36121 3.87187 7.16026 9.6998 -0.281177 7.55263 16.5922 -0.102732 -0.0 0.0 -0.0 1.39091 10.5387 3.62653 -14.0561 -48.8252 53.8181 0.819091 -22.0849 0.159848 -32.3284 -2.17466 3.45704 0.667687 -3.71051 2.92341 -0.0 0.0 -0.0 13.371 25.5786 -26.5861 -22.1794 -13.2554 -72.3459 0.642704 17.6604 -0.0998435 -51.9029 4.29639 -4.7787 4.88036 24.8509 -21.5268 0.0 0.0 0.0 20.4888 -3.71305 18.9158 -14.4458 0.320443 2.18786 40.1638 26.2787 -5.22711 11.0496 -0.0 -0.0 -0.0 0.0 -0.0 44.6075 10.7047 10.5908 -22.2202 -0.26266 -3.37841 9.84389 -3.935 1.40332 1.50764 -0.0 -0.0 0.0 0.0 0.0 
534.949536221 705.235 -1213.82261132 -157.589349114 -45.3674604473 -172.457993944 5.13125 0.466121 3.86066 5.13951 0.219701 3.88245 5.14699 -0.254339 3.88034 5.12617 0.36121 3.87187 7.16026 9.6998 -0.281177 7.55263 16.5922 -0.102732 -0.0 0.0 -0.0 1.39091 10.5387 3.62653 -14.0561 -48.8252 53.8181 0.819091 -22.0849 0.159848 -32.3284 -2.17466 3.45704 0.667687 -3.71051 2.92341 -0.0 0.0 -0.0 13.371 25.5786 -26.5861 -22.1794 -13.2554 -72.3459 0.642704 17.6604 -0.0998435 -51.9029 4.29639 -4.7787 4.88036 24.8509 -21.5268 0.0 0.0 0.0 20.4888 -3.71305 18.9158 -14.4458 0.320443 2.18786 40.1638 26.2787 -5.22711 11.0496 -0.0 -0.0 -0.0 0.0 -0.0 44.6075 10.7047 10.5908 -22.2202 -0.26266 -3.37841 9.84389 -3.935 1.40332 1.50764 -0.0 -0.0 0.0 0.0 0.0 
557.266589377 704.759 -1216.01135503 -156.662267865 -47.4941190897 -171.623958709 4.68439 0.461848 3.70135 4.69198 0.225553 3.7232 4.70077 -0.258133 3.72108 4.6816 0.332366 3.71519 8.11217 10.424 0.708966 8.51294 16.7762 1.00203 -0.0 0.0 -0.0 3.77423 11.1608 7.73714 -14.0532 -47.5531 49.8601 0.883677 -23.641 0.184943 -33.2796 -2.26643 3.53742 -0.188844 -2.01185 -2.11731 -0.0 0.0 -0.0 13.1363 25.9143 -26.0023 -22.739 -13.8788 -71.9374 0.555996 15.399 -0.0751691 -52.4961 4.36703 -4.80704 4.71277 22.4999 -21.7806 0.0 0.0 0.0 18.9999 -5.57911 19.7532 -12.4785 0.309423 1.88624 40.4064 26.0892 -5.24384 8.88766 -0.0 -0.0 -0.0 0.0 -0.0 47.9742 11.9112 8.21649 -17.9259 -0.314559 -2.7217 -0.54665 2.77347 -0.0816587 -0.727582 0.0 0.0 0.0 0.0 0.0 
568.291754432 707.201 -1215.23901097 -155.813194777 -48.9063500443 -170.758879309 4.52299 0.377099 3.59073 4.53015 0.148 3.60742 4.53426 -0.330642 3.5953 4.51631 0.240939 3.60241 8.38078 10.4996 0.52143 8.80484 17.0271 0.754555 -0.0 0.0 -0.0 3.80799 13.5816 7.85432 -14.9817 -48.2 47.8439 1.10986 -28.8009 0.284982 -34.2886 -2.36524 3.62103 -0.340915 -2.28108 -3.25398 -0.0 0.0 -0.0 12.7111 24.2421 -25.2039 -23.2005 -14.1386 -71.8917 0.549422 15.2254 -0.0734333 -52.6759 4.3885 -4.81548 4.46325 21.0304 -20.8908 0.0 0.0 0.0 18.5255 -6.05339 20.1232 -12.1912 0.306948 1.84222 38.1245 26.2626 -5.0248 7.63117 -0.0 -0.0 -0.0 0.0 -0.0 47.9495 11.8133 8.07106 -15.68 -0.322067 -2.37722 -3.03046 5.53967 -0.460276 -1.78377 0.0 0.0 0.0 0.0 0.0 
